<mxfile host="app.diagrams.net" modified="2024-01-12T10:20:09.363Z" agent="Mozilla/5.0 (Windows NT 10.0; Win64; x64) AppleWebKit/537.36 (KHTML, like Gecko) Chrome/120.0.0.0 Safari/537.36 Edg/120.0.0.0" etag="ESOHp_4JSXApAM1gAIas" version="22.1.18" type="onedrive">
  <diagram id="6a731a19-8d31-9384-78a2-239565b7b9f0" name="Page-1">
    <mxGraphModel grid="1" page="1" gridSize="10" guides="1" tooltips="1" connect="1" arrows="1" fold="1" pageScale="1" pageWidth="1169" pageHeight="827" background="none" math="0" shadow="0">
      <root>
        <mxCell id="0" />
        <mxCell id="1" parent="0" />
        <mxCell id="1747" value="" style="edgeStyle=none;rounded=0;jumpStyle=none;html=1;shadow=0;labelBackgroundColor=none;startArrow=none;startFill=0;endArrow=classic;endFill=1;jettySize=auto;orthogonalLoop=1;strokeColor=#2F5B7C;strokeWidth=3;fontFamily=Helvetica;fontSize=16;fontColor=#23445D;spacing=5;" edge="1" parent="1" source="1749" target="1760">
          <mxGeometry relative="1" as="geometry" />
        </mxCell>
        <mxCell id="1748" value="" style="edgeStyle=none;rounded=0;jumpStyle=none;html=1;shadow=0;labelBackgroundColor=none;startArrow=none;startFill=0;endArrow=classic;endFill=1;jettySize=auto;orthogonalLoop=1;strokeColor=#2F5B7C;strokeWidth=3;fontFamily=Helvetica;fontSize=16;fontColor=#23445D;spacing=5;" edge="1" parent="1" source="1749" target="1753">
          <mxGeometry relative="1" as="geometry" />
        </mxCell>
        <mxCell id="1749" value="&lt;span style=&quot;font-size: 18px;&quot;&gt;atc&lt;/span&gt;" style="rounded=1;whiteSpace=wrap;html=1;shadow=0;labelBackgroundColor=none;strokeColor=none;strokeWidth=3;fillColor=#2F5B7C;fontFamily=Helvetica;fontSize=16;fontColor=#FFFFFF;align=center;fontStyle=1;spacing=5;arcSize=7;perimeterSpacing=2;" vertex="1" parent="1">
          <mxGeometry x="540" y="358.5" width="150" height="70" as="geometry" />
        </mxCell>
        <mxCell id="1750" value="" style="edgeStyle=none;rounded=1;jumpStyle=none;html=1;shadow=0;labelBackgroundColor=none;startArrow=none;startFill=0;jettySize=auto;orthogonalLoop=1;strokeColor=#E85642;strokeWidth=3;fontFamily=Helvetica;fontSize=14;fontColor=#FFFFFF;spacing=5;fontStyle=1;fillColor=#b0e3e6;" edge="1" parent="1" source="1753" target="1756">
          <mxGeometry relative="1" as="geometry" />
        </mxCell>
        <mxCell id="1751" value="" style="edgeStyle=none;rounded=1;jumpStyle=none;html=1;shadow=0;labelBackgroundColor=none;startArrow=none;startFill=0;jettySize=auto;orthogonalLoop=1;strokeColor=#E85642;strokeWidth=3;fontFamily=Helvetica;fontSize=14;fontColor=#FFFFFF;spacing=5;fontStyle=1;fillColor=#b0e3e6;" edge="1" parent="1" source="1753" target="1755">
          <mxGeometry relative="1" as="geometry" />
        </mxCell>
        <mxCell id="1752" value="" style="edgeStyle=none;rounded=1;jumpStyle=none;html=1;shadow=0;labelBackgroundColor=none;startArrow=none;startFill=0;jettySize=auto;orthogonalLoop=1;strokeColor=#E85642;strokeWidth=3;fontFamily=Helvetica;fontSize=14;fontColor=#FFFFFF;spacing=5;fontStyle=1;fillColor=#b0e3e6;" edge="1" parent="1" source="1753" target="1754">
          <mxGeometry relative="1" as="geometry" />
        </mxCell>
        <mxCell id="1753" value="/Subjects" style="rounded=1;whiteSpace=wrap;html=1;shadow=0;labelBackgroundColor=none;strokeColor=none;strokeWidth=3;fillColor=#e85642;fontFamily=Helvetica;fontSize=14;fontColor=#FFFFFF;align=center;spacing=5;fontStyle=1;arcSize=7;perimeterSpacing=2;" vertex="1" parent="1">
          <mxGeometry x="265" y="368" width="145" height="55.5" as="geometry" />
        </mxCell>
        <mxCell id="1754" value="/Music" style="rounded=1;whiteSpace=wrap;html=1;shadow=0;labelBackgroundColor=none;strokeColor=none;strokeWidth=3;fillColor=#f08e81;fontFamily=Helvetica;fontSize=14;fontColor=#FFFFFF;align=center;spacing=5;fontStyle=0;arcSize=7;perimeterSpacing=2;" vertex="1" parent="1">
          <mxGeometry x="185" y="519.25" width="150" height="60" as="geometry" />
        </mxCell>
        <mxCell id="1755" value="/Science" style="rounded=1;whiteSpace=wrap;html=1;shadow=0;labelBackgroundColor=none;strokeColor=none;strokeWidth=3;fillColor=#f08e81;fontFamily=Helvetica;fontSize=14;fontColor=#FFFFFF;align=center;spacing=5;fontStyle=0;arcSize=7;perimeterSpacing=2;" vertex="1" parent="1">
          <mxGeometry x="55" y="278" width="150" height="60" as="geometry" />
        </mxCell>
        <mxCell id="1756" value="/Maths" style="rounded=1;whiteSpace=wrap;html=1;shadow=0;labelBackgroundColor=none;strokeColor=none;strokeWidth=3;fillColor=#f08e81;fontFamily=Helvetica;fontSize=14;fontColor=#FFFFFF;align=center;spacing=5;fontStyle=0;arcSize=7;perimeterSpacing=2;" vertex="1" parent="1">
          <mxGeometry x="155" y="198" width="150" height="60" as="geometry" />
        </mxCell>
        <mxCell id="1757" value="" style="edgeStyle=none;rounded=0;jumpStyle=none;html=1;shadow=0;labelBackgroundColor=none;startArrow=none;startFill=0;endArrow=classic;endFill=1;jettySize=auto;orthogonalLoop=1;strokeColor=#1699D3;strokeWidth=3;fontFamily=Helvetica;fontSize=14;fontColor=#FFFFFF;spacing=5;" edge="1" parent="1" source="1760" target="1763">
          <mxGeometry relative="1" as="geometry" />
        </mxCell>
        <mxCell id="1758" value="" style="edgeStyle=none;rounded=0;jumpStyle=none;html=1;shadow=0;labelBackgroundColor=none;startArrow=none;startFill=0;endArrow=classic;endFill=1;jettySize=auto;orthogonalLoop=1;strokeColor=#1699D3;strokeWidth=3;fontFamily=Helvetica;fontSize=14;fontColor=#FFFFFF;spacing=5;" edge="1" parent="1" source="1760" target="1762">
          <mxGeometry relative="1" as="geometry" />
        </mxCell>
        <mxCell id="1759" value="" style="edgeStyle=none;rounded=0;jumpStyle=none;html=1;shadow=0;labelBackgroundColor=none;startArrow=none;startFill=0;endArrow=classic;endFill=1;jettySize=auto;orthogonalLoop=1;strokeColor=#1699D3;strokeWidth=3;fontFamily=Helvetica;fontSize=14;fontColor=#FFFFFF;spacing=5;" edge="1" parent="1" source="1760" target="1761">
          <mxGeometry relative="1" as="geometry" />
        </mxCell>
        <mxCell id="1760" value="/Terms and Policies" style="rounded=1;whiteSpace=wrap;html=1;shadow=0;labelBackgroundColor=none;strokeColor=none;strokeWidth=3;fillColor=#1699d3;fontFamily=Helvetica;fontSize=14;fontColor=#FFFFFF;align=center;spacing=5;fontStyle=1;arcSize=7;perimeterSpacing=2;" vertex="1" parent="1">
          <mxGeometry x="483.5" y="603.5" width="150" height="60" as="geometry" />
        </mxCell>
        <mxCell id="1761" value="/Terms of Use" style="rounded=1;whiteSpace=wrap;html=1;shadow=0;labelBackgroundColor=none;strokeColor=none;strokeWidth=3;fillColor=#64bbe2;fontFamily=Helvetica;fontSize=14;fontColor=#FFFFFF;align=center;spacing=5;arcSize=7;perimeterSpacing=2;" vertex="1" parent="1">
          <mxGeometry x="683.5" y="683.5" width="150" height="60" as="geometry" />
        </mxCell>
        <mxCell id="1762" value="/Copyright Policy" style="rounded=1;whiteSpace=wrap;html=1;shadow=0;labelBackgroundColor=none;strokeColor=none;strokeWidth=3;fillColor=#64bbe2;fontFamily=Helvetica;fontSize=14;fontColor=#FFFFFF;align=center;spacing=5;arcSize=7;perimeterSpacing=2;" vertex="1" parent="1">
          <mxGeometry x="483.5" y="749.5" width="150" height="60" as="geometry" />
        </mxCell>
        <mxCell id="1763" value="/Safety Policy" style="rounded=1;whiteSpace=wrap;html=1;shadow=0;labelBackgroundColor=none;strokeColor=none;strokeWidth=3;fillColor=#64bbe2;fontFamily=Helvetica;fontSize=14;fontColor=#FFFFFF;align=center;spacing=5;arcSize=7;perimeterSpacing=2;" vertex="1" parent="1">
          <mxGeometry x="283.5" y="683.5" width="150" height="60" as="geometry" />
        </mxCell>
        <mxCell id="agEcbCtYm0Ne11mRyJFQ-1779" value="" style="edgeStyle=none;rounded=0;jumpStyle=none;html=1;shadow=0;labelBackgroundColor=none;startArrow=none;startFill=0;endArrow=classic;endFill=1;jettySize=auto;orthogonalLoop=1;strokeColor=#2F5B7C;strokeWidth=3;fontFamily=Helvetica;fontSize=16;fontColor=#23445D;spacing=5;exitX=0;exitY=1;exitDx=0;exitDy=0;entryX=0.808;entryY=0.027;entryDx=0;entryDy=0;entryPerimeter=0;" edge="1" parent="1" source="1749" target="agEcbCtYm0Ne11mRyJFQ-1780">
          <mxGeometry relative="1" as="geometry">
            <mxPoint x="521" y="468" as="sourcePoint" />
            <mxPoint x="445" y="498" as="targetPoint" />
          </mxGeometry>
        </mxCell>
        <mxCell id="agEcbCtYm0Ne11mRyJFQ-1780" value="/EREA" style="rounded=1;whiteSpace=wrap;html=1;shadow=0;labelBackgroundColor=none;strokeColor=none;strokeWidth=3;fillColor=#00CC66;fontFamily=Helvetica;fontSize=14;fontColor=#FFFFFF;align=center;spacing=5;fontStyle=1;arcSize=7;perimeterSpacing=2;" vertex="1" parent="1">
          <mxGeometry x="355" y="498" width="150" height="60" as="geometry" />
        </mxCell>
        <mxCell id="agEcbCtYm0Ne11mRyJFQ-1795" value="login" style="rounded=1;whiteSpace=wrap;html=1;shadow=0;labelBackgroundColor=none;strokeColor=none;strokeWidth=3;fillColor=#C92B8F;fontFamily=Helvetica;fontSize=14;fontColor=#FFFFFF;align=center;spacing=5;fontStyle=1;arcSize=7;perimeterSpacing=2;" vertex="1" parent="1">
          <mxGeometry x="725" y="262.9999999999999" width="150" height="60" as="geometry" />
        </mxCell>
        <mxCell id="agEcbCtYm0Ne11mRyJFQ-1799" value="register" style="rounded=1;whiteSpace=wrap;html=1;shadow=0;labelBackgroundColor=none;strokeColor=none;strokeWidth=3;fillColor=#C92B8F;fontFamily=Helvetica;fontSize=14;fontColor=#FFFFFF;align=center;spacing=5;fontStyle=1;arcSize=7;perimeterSpacing=2;" vertex="1" parent="1">
          <mxGeometry x="725" y="368.4999999999999" width="150" height="60" as="geometry" />
        </mxCell>
        <mxCell id="agEcbCtYm0Ne11mRyJFQ-1801" value="" style="edgeStyle=none;rounded=1;jumpStyle=none;html=1;shadow=0;labelBackgroundColor=none;startArrow=classic;startFill=1;jettySize=auto;orthogonalLoop=1;strokeColor=#C92B8F;strokeWidth=3;fontFamily=Helvetica;fontSize=14;fontColor=#FFFFFF;spacing=5;fontStyle=1;fillColor=#b0e3e6;entryX=0.5;entryY=1;entryDx=0;entryDy=0;exitX=0.5;exitY=0;exitDx=0;exitDy=0;" edge="1" parent="1" source="agEcbCtYm0Ne11mRyJFQ-1799" target="agEcbCtYm0Ne11mRyJFQ-1795">
          <mxGeometry relative="1" as="geometry">
            <mxPoint x="765" y="352.75" as="sourcePoint" />
            <mxPoint x="816" y="330.75" as="targetPoint" />
          </mxGeometry>
        </mxCell>
        <mxCell id="agEcbCtYm0Ne11mRyJFQ-1802" value="/English" style="rounded=1;whiteSpace=wrap;html=1;shadow=0;labelBackgroundColor=none;strokeColor=none;strokeWidth=3;fillColor=#f08e81;fontFamily=Helvetica;fontSize=14;fontColor=#FFFFFF;align=center;spacing=5;fontStyle=0;arcSize=7;perimeterSpacing=2;" vertex="1" parent="1">
          <mxGeometry x="325" y="242.5" width="150" height="60" as="geometry" />
        </mxCell>
        <mxCell id="agEcbCtYm0Ne11mRyJFQ-1803" value="" style="edgeStyle=none;rounded=1;jumpStyle=none;html=1;shadow=0;labelBackgroundColor=none;startArrow=none;startFill=0;jettySize=auto;orthogonalLoop=1;strokeColor=#E85642;strokeWidth=3;fontFamily=Helvetica;fontSize=14;fontColor=#FFFFFF;spacing=5;fontStyle=1;fillColor=#b0e3e6;entryX=0.5;entryY=1;entryDx=0;entryDy=0;exitX=0.856;exitY=-0.024;exitDx=0;exitDy=0;exitPerimeter=0;" edge="1" parent="1" source="1753" target="agEcbCtYm0Ne11mRyJFQ-1802">
          <mxGeometry relative="1" as="geometry">
            <mxPoint x="305" y="318" as="sourcePoint" />
            <mxPoint x="232" y="305" as="targetPoint" />
          </mxGeometry>
        </mxCell>
        <mxCell id="agEcbCtYm0Ne11mRyJFQ-1805" value="" style="edgeStyle=none;rounded=0;jumpStyle=none;html=1;shadow=0;labelBackgroundColor=none;startArrow=none;startFill=0;endArrow=classic;endFill=1;jettySize=auto;orthogonalLoop=1;strokeColor=#1699D3;strokeWidth=3;fontFamily=Helvetica;fontSize=14;fontColor=#FFFFFF;spacing=5;entryX=0;entryY=0.5;entryDx=0;entryDy=0;exitX=1;exitY=0.5;exitDx=0;exitDy=0;" edge="1" parent="1" source="1760" target="agEcbCtYm0Ne11mRyJFQ-1806">
          <mxGeometry relative="1" as="geometry">
            <mxPoint x="658.5" y="584.5" as="sourcePoint" />
          </mxGeometry>
        </mxCell>
        <mxCell id="agEcbCtYm0Ne11mRyJFQ-1806" value="/Privacy Policy" style="rounded=1;whiteSpace=wrap;html=1;shadow=0;labelBackgroundColor=none;strokeColor=none;strokeWidth=3;fillColor=#64bbe2;fontFamily=Helvetica;fontSize=14;fontColor=#FFFFFF;align=center;spacing=5;arcSize=7;perimeterSpacing=2;" vertex="1" parent="1">
          <mxGeometry x="718.5" y="583.5" width="150" height="60" as="geometry" />
        </mxCell>
        <mxCell id="agEcbCtYm0Ne11mRyJFQ-1807" value="" style="edgeStyle=none;rounded=0;jumpStyle=none;html=1;shadow=0;labelBackgroundColor=none;startArrow=none;startFill=0;endArrow=classic;endFill=1;jettySize=auto;orthogonalLoop=1;strokeColor=#1699D3;strokeWidth=3;fontFamily=Helvetica;fontSize=14;fontColor=#FFFFFF;spacing=5;entryX=0.25;entryY=1;entryDx=0;entryDy=0;exitX=0.75;exitY=0;exitDx=0;exitDy=0;" edge="1" parent="1" source="1760" target="agEcbCtYm0Ne11mRyJFQ-1808">
          <mxGeometry relative="1" as="geometry">
            <mxPoint x="598.4960000000001" y="580.424" as="sourcePoint" />
          </mxGeometry>
        </mxCell>
        <mxCell id="agEcbCtYm0Ne11mRyJFQ-1808" value="/Terms and conditions" style="rounded=1;whiteSpace=wrap;html=1;shadow=0;labelBackgroundColor=none;strokeColor=none;strokeWidth=3;fillColor=#64bbe2;fontFamily=Helvetica;fontSize=14;fontColor=#FFFFFF;align=center;spacing=5;arcSize=7;perimeterSpacing=2;" vertex="1" parent="1">
          <mxGeometry x="603.45" y="498" width="150" height="60" as="geometry" />
        </mxCell>
        <mxCell id="agEcbCtYm0Ne11mRyJFQ-1809" value="" style="edgeStyle=none;rounded=0;jumpStyle=none;html=1;shadow=0;labelBackgroundColor=none;startArrow=none;startFill=0;endArrow=classic;endFill=1;jettySize=auto;orthogonalLoop=1;strokeColor=#1699D3;strokeWidth=3;fontFamily=Helvetica;fontSize=14;fontColor=#FFFFFF;spacing=5;entryX=1;entryY=0.5;entryDx=0;entryDy=0;exitX=0;exitY=0.5;exitDx=0;exitDy=0;" edge="1" parent="1" source="1760" target="agEcbCtYm0Ne11mRyJFQ-1810">
          <mxGeometry relative="1" as="geometry">
            <mxPoint x="233" y="563.5" as="sourcePoint" />
          </mxGeometry>
        </mxCell>
        <mxCell id="agEcbCtYm0Ne11mRyJFQ-1810" value="/Cookie Policy" style="rounded=1;whiteSpace=wrap;html=1;shadow=0;labelBackgroundColor=none;strokeColor=none;strokeWidth=3;fillColor=#64bbe2;fontFamily=Helvetica;fontSize=14;fontColor=#FFFFFF;align=center;spacing=5;arcSize=7;perimeterSpacing=2;" vertex="1" parent="1">
          <mxGeometry x="268.5" y="594.75" width="150" height="60" as="geometry" />
        </mxCell>
        <mxCell id="agEcbCtYm0Ne11mRyJFQ-1811" value="" style="edgeStyle=none;rounded=1;jumpStyle=none;html=1;shadow=0;labelBackgroundColor=none;startArrow=none;startFill=0;jettySize=auto;orthogonalLoop=1;strokeColor=#E85642;strokeWidth=3;fontFamily=Helvetica;fontSize=14;fontColor=#FFFFFF;spacing=5;fontStyle=1;fillColor=#b0e3e6;entryX=1;entryY=0.5;entryDx=0;entryDy=0;exitX=0;exitY=1;exitDx=0;exitDy=0;" edge="1" parent="1" source="1753" target="agEcbCtYm0Ne11mRyJFQ-1812">
          <mxGeometry relative="1" as="geometry">
            <mxPoint x="232" y="349.75" as="sourcePoint" />
          </mxGeometry>
        </mxCell>
        <mxCell id="agEcbCtYm0Ne11mRyJFQ-1812" value="/Religion" style="rounded=1;whiteSpace=wrap;html=1;shadow=0;labelBackgroundColor=none;strokeColor=none;strokeWidth=3;fillColor=#f08e81;fontFamily=Helvetica;fontSize=14;fontColor=#FFFFFF;align=center;spacing=5;fontStyle=0;arcSize=7;perimeterSpacing=2;" vertex="1" parent="1">
          <mxGeometry x="65" y="443" width="150" height="60" as="geometry" />
        </mxCell>
        <mxCell id="agEcbCtYm0Ne11mRyJFQ-1814" value="" style="edgeStyle=none;rounded=1;jumpStyle=none;html=1;shadow=0;labelBackgroundColor=none;startArrow=none;startFill=0;jettySize=auto;orthogonalLoop=1;strokeColor=#E85642;strokeWidth=3;fontFamily=Helvetica;fontSize=14;fontColor=#FFFFFF;spacing=5;fontStyle=1;fillColor=#b0e3e6;exitX=0;exitY=0.5;exitDx=0;exitDy=0;" edge="1" parent="1" source="1753" target="agEcbCtYm0Ne11mRyJFQ-1815">
          <mxGeometry relative="1" as="geometry">
            <mxPoint x="202" y="275.25" as="sourcePoint" />
          </mxGeometry>
        </mxCell>
        <mxCell id="agEcbCtYm0Ne11mRyJFQ-1815" value="/Technology" style="rounded=1;whiteSpace=wrap;html=1;shadow=0;labelBackgroundColor=none;strokeColor=none;strokeWidth=3;fillColor=#f08e81;fontFamily=Helvetica;fontSize=14;fontColor=#FFFFFF;align=center;spacing=5;fontStyle=0;arcSize=7;perimeterSpacing=2;" vertex="1" parent="1">
          <mxGeometry x="55" y="358.5" width="150" height="60" as="geometry" />
        </mxCell>
        <mxCell id="agEcbCtYm0Ne11mRyJFQ-1816" value="" style="edgeStyle=none;rounded=1;jumpStyle=none;html=1;shadow=0;labelBackgroundColor=none;startArrow=classic;startFill=1;jettySize=auto;orthogonalLoop=1;strokeColor=#C92B8F;strokeWidth=3;fontFamily=Helvetica;fontSize=14;fontColor=#FFFFFF;spacing=5;fontStyle=1;fillColor=#b0e3e6;exitX=1;exitY=0.5;exitDx=0;exitDy=0;" edge="1" parent="1" source="agEcbCtYm0Ne11mRyJFQ-1795">
          <mxGeometry relative="1" as="geometry">
            <mxPoint x="905" y="297.25" as="sourcePoint" />
            <mxPoint x="965" y="293.25" as="targetPoint" />
          </mxGeometry>
        </mxCell>
        <mxCell id="agEcbCtYm0Ne11mRyJFQ-1817" value="forgot" style="rounded=1;whiteSpace=wrap;html=1;shadow=0;labelBackgroundColor=none;strokeColor=none;strokeWidth=3;fillColor=#C92B8F;fontFamily=Helvetica;fontSize=14;fontColor=#FFFFFF;align=center;spacing=5;fontStyle=1;arcSize=7;perimeterSpacing=2;" vertex="1" parent="1">
          <mxGeometry x="965" y="262.9999999999999" width="150" height="60" as="geometry" />
        </mxCell>
        <mxCell id="mikekNWWEMkFw1inJ5Cx-1781" style="edgeStyle=orthogonalEdgeStyle;rounded=0;orthogonalLoop=1;jettySize=auto;html=1;exitX=0.5;exitY=1;exitDx=0;exitDy=0;entryX=0.5;entryY=0;entryDx=0;entryDy=0;strokeWidth=3;strokeColor=#CC6600;" edge="1" parent="1" source="mikekNWWEMkFw1inJ5Cx-1779" target="1749">
          <mxGeometry relative="1" as="geometry" />
        </mxCell>
        <mxCell id="mikekNWWEMkFw1inJ5Cx-1782" style="rounded=0;orthogonalLoop=1;jettySize=auto;html=1;exitX=1;exitY=1;exitDx=0;exitDy=0;entryX=0;entryY=0;entryDx=0;entryDy=0;strokeColor=#CC6600;strokeWidth=3;" edge="1" parent="1" source="mikekNWWEMkFw1inJ5Cx-1779" target="agEcbCtYm0Ne11mRyJFQ-1795">
          <mxGeometry relative="1" as="geometry" />
        </mxCell>
        <mxCell id="mikekNWWEMkFw1inJ5Cx-1783" style="edgeStyle=orthogonalEdgeStyle;rounded=0;orthogonalLoop=1;jettySize=auto;html=1;exitX=1;exitY=0.5;exitDx=0;exitDy=0;strokeColor=#CC6600;strokeWidth=3;entryX=0;entryY=0.5;entryDx=0;entryDy=0;" edge="1" parent="1" source="mikekNWWEMkFw1inJ5Cx-1779" target="mikekNWWEMkFw1inJ5Cx-1784">
          <mxGeometry relative="1" as="geometry">
            <mxPoint x="745" y="193.55555555555543" as="targetPoint" />
          </mxGeometry>
        </mxCell>
        <mxCell id="mikekNWWEMkFw1inJ5Cx-1790" value="" style="edgeStyle=orthogonalEdgeStyle;rounded=0;orthogonalLoop=1;jettySize=auto;html=1;entryX=1;entryY=0.5;entryDx=0;entryDy=0;strokeWidth=3;strokeColor=#CC6600;" edge="1" parent="1" source="mikekNWWEMkFw1inJ5Cx-1779" target="mikekNWWEMkFw1inJ5Cx-1791">
          <mxGeometry relative="1" as="geometry">
            <mxPoint x="445" y="193" as="targetPoint" />
          </mxGeometry>
        </mxCell>
        <mxCell id="mikekNWWEMkFw1inJ5Cx-1792" style="rounded=0;orthogonalLoop=1;jettySize=auto;html=1;exitX=0;exitY=0;exitDx=0;exitDy=0;strokeColor=#CC6600;strokeWidth=3;" edge="1" parent="1" source="mikekNWWEMkFw1inJ5Cx-1779">
          <mxGeometry relative="1" as="geometry">
            <mxPoint x="495" y="128" as="targetPoint" />
          </mxGeometry>
        </mxCell>
        <mxCell id="mikekNWWEMkFw1inJ5Cx-1797" style="rounded=0;orthogonalLoop=1;jettySize=auto;html=1;exitX=1;exitY=0;exitDx=0;exitDy=0;strokeWidth=3;strokeColor=#CC6600;" edge="1" parent="1" source="mikekNWWEMkFw1inJ5Cx-1779">
          <mxGeometry relative="1" as="geometry">
            <mxPoint x="735" y="88" as="targetPoint" />
          </mxGeometry>
        </mxCell>
        <mxCell id="mikekNWWEMkFw1inJ5Cx-1779" value="&lt;span style=&quot;font-size: 18px;&quot;&gt;/&lt;/span&gt;" style="rounded=1;whiteSpace=wrap;html=1;shadow=0;labelBackgroundColor=none;strokeColor=none;strokeWidth=3;fillColor=#CC6600;fontFamily=Helvetica;fontSize=16;fontColor=#FFFFFF;align=center;fontStyle=1;spacing=5;arcSize=7;perimeterSpacing=2;" vertex="1" parent="1">
          <mxGeometry x="540" y="158" width="150" height="70" as="geometry" />
        </mxCell>
        <mxCell id="mikekNWWEMkFw1inJ5Cx-1784" value="logout/" style="rounded=1;whiteSpace=wrap;html=1;shadow=0;labelBackgroundColor=none;strokeColor=none;strokeWidth=3;fillColor=#67AB9F;fontFamily=Helvetica;fontSize=14;fontColor=#FFFFFF;align=center;spacing=5;fontStyle=1;arcSize=7;perimeterSpacing=2;" vertex="1" parent="1">
          <mxGeometry x="745" y="162.9999999999999" width="150" height="60" as="geometry" />
        </mxCell>
        <mxCell id="mikekNWWEMkFw1inJ5Cx-1791" value="radar/" style="rounded=1;whiteSpace=wrap;html=1;shadow=0;labelBackgroundColor=none;strokeColor=none;strokeWidth=3;fillColor=#8F76AB;fontFamily=Helvetica;fontSize=14;fontColor=#FFFFFF;align=center;spacing=5;fontStyle=1;arcSize=7;perimeterSpacing=2;" vertex="1" parent="1">
          <mxGeometry x="325" y="162.9999999999999" width="150" height="60" as="geometry" />
        </mxCell>
        <mxCell id="mikekNWWEMkFw1inJ5Cx-1793" value="routes/" style="rounded=1;whiteSpace=wrap;html=1;shadow=0;labelBackgroundColor=none;strokeColor=none;strokeWidth=3;fillColor=#95C416;fontFamily=Helvetica;fontSize=14;fontColor=#FFFFFF;align=center;spacing=5;fontStyle=1;arcSize=7;perimeterSpacing=2;" vertex="1" parent="1">
          <mxGeometry x="345" y="67.99999999999989" width="150" height="60" as="geometry" />
        </mxCell>
        <mxCell id="mikekNWWEMkFw1inJ5Cx-1794" style="rounded=0;orthogonalLoop=1;jettySize=auto;html=1;exitX=0.25;exitY=0;exitDx=0;exitDy=0;strokeColor=#CC6600;strokeWidth=3;" edge="1" parent="1" source="mikekNWWEMkFw1inJ5Cx-1779">
          <mxGeometry relative="1" as="geometry">
            <mxPoint x="575" y="78" as="targetPoint" />
            <mxPoint x="580" y="96" as="sourcePoint" />
          </mxGeometry>
        </mxCell>
        <mxCell id="mikekNWWEMkFw1inJ5Cx-1796" value="saved/" style="rounded=1;whiteSpace=wrap;html=1;shadow=0;labelBackgroundColor=none;strokeColor=none;strokeWidth=3;fillColor=#FF6D24;fontFamily=Helvetica;fontSize=14;fontColor=#FFFFFF;align=center;spacing=5;fontStyle=1;arcSize=7;perimeterSpacing=2;" vertex="1" parent="1">
          <mxGeometry x="517" y="17.999999999999886" width="150" height="60" as="geometry" />
        </mxCell>
        <mxCell id="mikekNWWEMkFw1inJ5Cx-1799" style="edgeStyle=orthogonalEdgeStyle;rounded=0;orthogonalLoop=1;jettySize=auto;html=1;exitX=1;exitY=0.5;exitDx=0;exitDy=0;strokeWidth=3;strokeColor=#9B50BF;" edge="1" parent="1" source="mikekNWWEMkFw1inJ5Cx-1798">
          <mxGeometry relative="1" as="geometry">
            <mxPoint x="935" y="57.736842105263236" as="targetPoint" />
          </mxGeometry>
        </mxCell>
        <mxCell id="mikekNWWEMkFw1inJ5Cx-1798" value="search/" style="rounded=1;whiteSpace=wrap;html=1;shadow=0;labelBackgroundColor=none;strokeColor=none;strokeWidth=3;fillColor=#9B50BF;fontFamily=Helvetica;fontSize=14;fontColor=#FFFFFF;align=center;spacing=5;fontStyle=1;arcSize=7;perimeterSpacing=2;" vertex="1" parent="1">
          <mxGeometry x="735" y="27.999999999999886" width="150" height="60" as="geometry" />
        </mxCell>
        <mxCell id="mikekNWWEMkFw1inJ5Cx-1800" value="search/q=&amp;lt;str:location&amp;gt;" style="rounded=1;whiteSpace=wrap;html=1;shadow=0;labelBackgroundColor=none;strokeColor=none;strokeWidth=3;fillColor=#CE6BFF;fontFamily=Helvetica;fontSize=14;fontColor=#FFFFFF;align=center;spacing=5;fontStyle=1;arcSize=7;perimeterSpacing=2;" vertex="1" parent="1">
          <mxGeometry x="935" y="28" width="180" height="60" as="geometry" />
        </mxCell>
      </root>
    </mxGraphModel>
  </diagram>
</mxfile>
